<?xml version="1.0" encoding="UTF-8" standalone="no"?>
<svg
   xmlns:dc="http://purl.org/dc/elements/1.1/"
   xmlns:cc="http://creativecommons.org/ns#"
   xmlns:rdf="http://www.w3.org/1999/02/22-rdf-syntax-ns#"
   xmlns:svg="http://www.w3.org/2000/svg"
   xmlns="http://www.w3.org/2000/svg"
   xmlns:sodipodi="http://sodipodi.sourceforge.net/DTD/sodipodi-0.dtd"
   xmlns:inkscape="http://www.inkscape.org/namespaces/inkscape"
   viewBox="0 0 50 50"
   version="1.1"
   id="svg4"
   sodipodi:docname="c.svg"
   inkscape:version="1.0.2 (e86c870879, 2021-01-15, custom)">
  <metadata
     id="metadata10">
    <rdf:RDF>
      <cc:Work
         rdf:about="">
        <dc:format>image/svg+xml</dc:format>
        <dc:type
           rdf:resource="http://purl.org/dc/dcmitype/StillImage" />
      </cc:Work>
    </rdf:RDF>
  </metadata>
  <defs
     id="defs8" />
  <sodipodi:namedview
     pagecolor="#ffffff"
     bordercolor="#666666"
     borderopacity="1"
     objecttolerance="10"
     gridtolerance="10"
     guidetolerance="10"
     inkscape:pageopacity="0"
     inkscape:pageshadow="2"
     inkscape:window-width="1920"
     inkscape:window-height="1017"
     id="namedview6"
     showgrid="false"
     inkscape:zoom="12.020815"
     inkscape:cx="35.51494"
     inkscape:cy="36.823793"
     inkscape:window-x="-8"
     inkscape:window-y="-8"
     inkscape:window-maximized="1"
     inkscape:current-layer="svg4" />
  <path
     d="m 25,2.0019531 c -0.715375,0 -1.429859,0.1786094 -2.068359,0.5371094 L 6.0898438,12.003906 C 4.8018437,12.727906 4,14.081109 4,15.537109 v 18.927735 c 0,1.455 0.8008437,2.80725 2.0898438,3.53125 l 16.8417972,9.464844 c 0.638,0.357999 1.353359,0.537109 2.068359,0.537109 0.715,0 1.430359,-0.17811 2.068359,-0.537109 L 43.910156,37.998047 C 45.199156,37.272047 46,35.917891 46,34.462891 V 15.537109 c 0,-1.456 -0.801844,-2.809203 -2.089844,-3.533203 L 27.068359,2.5390625 C 26.430359,2.1805625 25.715375,2.0019531 25,2.0019531 Z M 25,13 c 3.78,0 7.275969,1.754234 9.542969,4.740234 l -4.38086,2.53711 C 28.844109,18.837344 26.973,18 25,18 c -3.86,0 -7,3.14 -7,7 0,3.86 3.14,7 7,7 1.973,0 3.844109,-0.837344 5.162109,-2.277344 l 4.38086,2.53711 C 32.275969,35.245766 28.78,37 25,37 18.383,37 13,31.617 13,25 13,18.383 18.383,13 25,13 Z"
     id="path2"
     sodipodi:nodetypes="sccssccsccssccssccsssccsss" />
  <path
     d="m 25,2.0019531 c -0.715375,0 -1.429859,0.1786094 -2.068359,0.5371094 L 6.0898438,12.003906 C 4.8018437,12.727906 4,14.081109 4,15.537109 v 18.927735 c 0,1.455 0.8008437,2.80725 2.0898438,3.53125 l 16.8417972,9.464844 c 0.638,0.357999 1.353359,0.537109 2.068359,0.537109 0.715,0 1.430359,-0.17811 2.068359,-0.537109 L 43.910156,37.998047 C 45.199156,37.272047 46,35.917891 46,34.462891 V 15.537109 c 0,-1.456 -0.801844,-2.809203 -2.089844,-3.533203 L 27.068359,2.5390625 C 26.430359,2.1805625 25.715375,2.0019531 25,2.0019531 Z M 25,13 c 3.78,0 7.275969,1.754234 9.542969,4.740234 l -4.38086,2.53711 C 28.844109,18.837344 26.973,18 25,18 c -3.86,0 -7,3.14 -7,7 0,3.86 3.14,7 7,7 1.973,0 3.844109,-0.837344 5.162109,-2.277344 l 4.38086,2.53711 C 32.275969,35.245766 28.78,37 25,37 18.383,37 13,31.617 13,25 13,18.383 18.383,13 25,13 Z"
     id="path12"
     sodipodi:nodetypes="sccssccsccssccssccsssccsss" />
</svg>
