<svg width="24" height="24" version="1.1" viewBox="0 0 24 24" xmlns="http://www.w3.org/2000/svg">
 <path d="m9.67 12.5-7.29 7.29c-0.351 0.351-0.921 0.351-1.27 0l-0.85-0.85c-0.351-0.351-0.352-0.92-0.0015-1.27l5.78-5.8-5.78-5.8c-0.35-0.352-0.349-0.92 0.0015-1.27l0.85-0.85c0.351-0.351 0.921-0.351 1.27 0l7.29 7.29c0.351 0.351 0.351 0.921 0 1.27zm14.3 6.86v-1.2c0-0.497-0.403-0.9-0.9-0.9h-11.4c-0.497 0-0.9 0.403-0.9 0.9v1.2c0 0.497 0.403 0.9 0.9 0.9h11.4c0.497 0 0.9-0.403 0.9-0.9z" stroke-width=".0375"/>
</svg>
