<svg width="24" height="24" version="1.1" viewBox="0 0 24 24" xmlns="http://www.w3.org/2000/svg">
 <path d="m12 0c-0.373 0-0.746 0.0932-1.08 0.28l-8.79 4.94c-0.672 0.378-1.09 1.08-1.09 1.84v9.88c0 0.759 0.418 1.46 1.09 1.84l8.79 4.94c0.333 0.187 0.706 0.28 1.08 0.28s0.746-0.0929 1.08-0.28l8.79-4.94c0.673-0.379 1.09-1.09 1.09-1.84v-9.88c0-0.76-0.418-1.47-1.09-1.84l-8.79-4.94c-0.333-0.187-0.706-0.28-1.08-0.28zm0 5.74c1.97 0 3.8 0.915 4.98 2.47l-2.29 1.32c-0.688-0.751-1.66-1.19-2.69-1.19-2.01 0-3.65 1.64-3.65 3.65 0 2.01 1.64 3.65 3.65 3.65 1.03 0 2.01-0.437 2.69-1.19l2.29 1.32c-1.18 1.56-3.01 2.47-4.98 2.47-3.45 0-6.26-2.81-6.26-6.26 0-3.45 2.81-6.26 6.26-6.26zm5.22 3.65h1.04v1.04h1.04v-1.04h1.04v1.04h1.04v1.04h-1.04v1.04h1.04v1.04h-1.04v1.04h-1.04v-1.04h-1.04v1.04h-1.04v-1.04h-1.04v-1.04h1.04v-1.04h-1.04v-1.04h1.04zm1.04 2.09v1.04h1.04v-1.04z" stroke-width=".522"/>
</svg>
