<svg width="24" height="24" version="1.1" viewBox="0 0 24 24" xmlns="http://www.w3.org/2000/svg">
 <path d="m13.1 11.3h-2.48v-2.23h2.48zm0-7.66h-2.48v2.28h2.48zm2.93 5.43h-2.48v2.23h2.48zm-5.86-2.7h-2.48v2.25h2.48zm2.93 0h-2.48v2.25h2.48zm10.4 3.75c-0.54-0.364-1.78-0.495-2.74-0.315-0.124-0.9-0.626-1.68-1.54-2.39l-0.525-0.349-0.349 0.525c-0.69 1.04-0.877 2.76-0.139 3.89-0.326 0.176-0.967 0.416-1.81 0.401h-16.3c-0.326 1.9 0.217 4.38 1.65 6.08 1.39 1.65 3.48 2.48 6.2 2.48 5.9 0 10.3-2.72 12.3-7.66 0.802 0.015 2.53 0.0038 3.42-1.69 0.0562-0.0937 0.247-0.495 0.319-0.641zm-19.2-1.05h-2.47v2.23h2.48v-2.23zm2.93 0h-2.48v2.23h2.48zm2.93 0h-2.48v2.23h2.48zm-2.93-2.7h-2.48v2.25h2.48z" stroke-width=".0375"/>
</svg>
