<svg width="24" height="24" version="1.1" viewBox="0 0 24 24" xmlns="http://www.w3.org/2000/svg">
 <path d="m18.4 11.8h1.87v2.36h-0.623l-0.0998-0.495c-0.682 1.03-3.33 0.866-3.42-1.67-0.0184-2.87 3.77-3 4.07-0.765h-0.937c-0.183-0.782-1.04-0.882-1.56-0.572-0.448 0.267-0.62 0.828-0.599 1.34 0.0043 0.894 0.474 1.55 1.38 1.45 0.443-0.0493 0.841-0.286 0.898-0.926h-0.987zm3.46 1.55v-3.55h-0.979v4.36h3.15v-0.809zm-15-0.228c-0.452 1.09-1.89 1.42-2.9 0.892 2.48 2.11 8.65 3.1 13.3 0.687-5.95 4.87-17.3 2.09-17.2-2.7 0.0576-5.06 11.8-7.38 17.2-2.69-4.03-2.28-10.6-1.6-13.3 0.58 1.49-0.774 3.92 0.578 2.82 3.23zm-3.23-0.199c0.559 1.22 2.25 1.09 2.71-0.0279 0.514-1.23-0.033-2.68-1.36-2.71-1.27-0.0316-1.94 1.54-1.36 2.74zm12.1 1.24v-1.83c0.0295-0.578-0.259-0.892-0.667-0.981-0.423-0.0922-0.994-9e-3 -1.25 0.471v-0.44h-0.443v2.78h0.471v-1.57c0-0.545 0.409-1.01 1.08-0.808 0.187 0.0556 0.326 0.198 0.339 0.497v1.88zm-7.76-2.78v0.376c0.17-0.46 1.34-0.698 1.9-6e-3 0.202 0.249 0.316 0.6 0.316 1.02 0 0.221-0.0521 0.758-0.379 1.1-0.401 0.419-1.39 0.534-1.84-0.0867v1.43h-0.471v-3.84zm0.436 2.32c0.557 0.272 1.29 0.129 1.32-0.93 0.0263-0.859-0.736-1.3-1.32-0.922-0.592 0.383-0.577 1.44-0.00601 1.85zm2.52-0.795c-0.0124 0.272 0.0856 0.545 0.304 0.727 0.363 0.303 1.2 0.275 1.31-0.359h0.462c-0.166 1.03-1.4 1.12-2.01 0.72-0.433-0.28-0.549-0.789-0.57-1.24 0.0157-1.93 2.72-1.98 2.63 0.148zm0-0.405h1.63c-0.131-1.11-1.56-0.993-1.63 0z" stroke-width=".0469"/>
</svg>
