<?xml version="1.0" encoding="UTF-8" standalone="no"?>
<svg
   xmlns:dc="http://purl.org/dc/elements/1.1/"
   xmlns:cc="http://creativecommons.org/ns#"
   xmlns:rdf="http://www.w3.org/1999/02/22-rdf-syntax-ns#"
   xmlns:svg="http://www.w3.org/2000/svg"
   xmlns="http://www.w3.org/2000/svg"
   xmlns:sodipodi="http://sodipodi.sourceforge.net/DTD/sodipodi-0.dtd"
   xmlns:inkscape="http://www.inkscape.org/namespaces/inkscape"
   width="24mm"
   height="24mm"
   viewBox="0 0 24 24"
   version="1.1"
   id="svg8"
   inkscape:version="1.0.2 (e86c870879, 2021-01-15, custom)"
   sodipodi:docname="p.svg">
  <defs
     id="defs2" />
  <sodipodi:namedview
     id="base"
     pagecolor="#ffffff"
     bordercolor="#666666"
     borderopacity="1.0"
     inkscape:pageopacity="0.0"
     inkscape:pageshadow="2"
     inkscape:zoom="8.1558626"
     inkscape:cx="97.965983"
     inkscape:cy="47.844908"
     inkscape:document-units="mm"
     inkscape:current-layer="layer1"
     inkscape:document-rotation="0"
     showgrid="false"
     inkscape:window-width="1920"
     inkscape:window-height="1017"
     inkscape:window-x="-8"
     inkscape:window-y="-8"
     inkscape:window-maximized="1"
     showguides="false" />
  <metadata
     id="metadata5">
    <rdf:RDF>
      <cc:Work
         rdf:about="">
        <dc:format>image/svg+xml</dc:format>
        <dc:type
           rdf:resource="http://purl.org/dc/dcmitype/StillImage" />
        <dc:title />
      </cc:Work>
    </rdf:RDF>
  </metadata>
  <g
     inkscape:label="Layer 1"
     inkscape:groupmode="layer"
     id="layer1">
    <path
       style="fill:#000000;stroke-width:0.0243558"
       d="M 11.999784,0 A 12,12 0 0 0 0,11.999784 12,12 0 0 0 11.999784,24.000085 12,12 0 0 0 24.000085,11.999784 12,12 0 0 0 11.999784,0 Z"
       id="path114" />
    <path
       style="fill:#ffffff;stroke-width:0.0920534"
       d="m 53.757812,65.214844 c 0.34678,-0.112581 9.03641,5.645049 8.931641,5.917968 -1.61681,2.588006 -5.84136,8.723788 -6.509765,9.341797 -0.381585,0.352812 -9.011719,-5.597051 -9.011719,-5.730468 0,-0.302287 6.320363,-9.441801 6.589843,-9.529297 z"
       transform="scale(0.26458333)"
       id="path32" />
    <path
       style="fill:#ffffff;stroke-width:0.0920534"
       d="m 73.748047,35.179688 c 0.34518,0.0064 7.789377,4.722257 8.888672,5.630859 -4.959833,8.509062 -17.178212,25.393082 -18.742188,27.230469 -3.304664,-1.492948 -7.149996,-4.486527 -7.75,-5.119141 3.22995,-5.149542 17.306369,-27.747706 17.603516,-27.742187 z"
       transform="scale(0.26458333)"
       id="path30" />
    <path
       id="path28"
       style="fill:#ffffff;stroke-width:0.0920534"
       d="M 24.544922 14.283203 C 24.076331 14.282145 23.920264 15.932449 22.957031 31.173828 C 22.653063 35.983623 22.301757 41.409764 22.175781 43.232422 C 22.049821 45.055084 21.801286 48.783593 21.623047 51.517578 C 21.444808 54.251567 21.092093 59.607819 20.839844 63.419922 C 20.26571 72.096466 20.264097 72.233251 20.726562 72.306641 C 22.190401 72.538968 28.109018 72.9805 30.017578 73 C 31.138606 73.011339 31.137016 73.012472 31.191406 72.529297 C 31.221302 72.263483 31.494438 68.483035 31.796875 64.128906 C 32.411164 55.285458 32.692488 51.533326 32.767578 51.205078 C 32.823345 50.961311 33.123869 50.960592 37.732422 51.197266 C 55.745828 52.122078 63.145886 48.017605 64.707031 36.236328 C 66.187011 25.067418 59.734037 17.352781 47.8125 16.035156 C 43.058376 15.509707 26.838542 14.288403 24.544922 14.283203 z M 35.525391 23.863281 C 36.263515 23.83444 37.509301 23.928022 39.574219 24.128906 C 51.396169 25.279001 53.337133 26.682134 53.224609 34.005859 C 53.153932 38.60521 50.930089 41.545141 47.123047 42.070312 C 45.152205 42.342172 39.246583 42.446222 36.458984 42.257812 C 33.938829 42.087516 33.579071 41.970771 33.494141 41.291016 C 33.379687 40.374801 34.170811 27.332139 34.523438 24.326172 C 34.556614 24.043307 34.787266 23.892121 35.525391 23.863281 z "
       transform="scale(0.26458333)" />
  </g>
</svg>
