<?xml version="1.0" encoding="UTF-8" standalone="no"?>
<svg
   xmlns:dc="http://purl.org/dc/elements/1.1/"
   xmlns:cc="http://creativecommons.org/ns#"
   xmlns:rdf="http://www.w3.org/1999/02/22-rdf-syntax-ns#"
   xmlns:svg="http://www.w3.org/2000/svg"
   xmlns="http://www.w3.org/2000/svg"
   xmlns:sodipodi="http://sodipodi.sourceforge.net/DTD/sodipodi-0.dtd"
   xmlns:inkscape="http://www.inkscape.org/namespaces/inkscape"
   viewBox="0 0 24 24"
   version="1.1"
   id="svg4"
   sodipodi:docname="bash.svg"
   width="24"
   height="24"
   inkscape:version="1.0.2 (e86c870879, 2021-01-15, custom)">
  <metadata
     id="metadata10">
    <rdf:RDF>
      <cc:Work
         rdf:about="">
        <dc:format>image/svg+xml</dc:format>
        <dc:type
           rdf:resource="http://purl.org/dc/dcmitype/StillImage" />
        <dc:title></dc:title>
      </cc:Work>
    </rdf:RDF>
  </metadata>
  <defs
     id="defs8" />
  <sodipodi:namedview
     pagecolor="#ffffff"
     bordercolor="#666666"
     borderopacity="1"
     objecttolerance="10"
     gridtolerance="10"
     guidetolerance="10"
     inkscape:pageopacity="0"
     inkscape:pageshadow="2"
     inkscape:window-width="1920"
     inkscape:window-height="1017"
     id="namedview6"
     showgrid="false"
     inkscape:zoom="9.2100658"
     inkscape:cx="-28.193606"
     inkscape:cy="22.027668"
     inkscape:window-x="-8"
     inkscape:window-y="-8"
     inkscape:window-maximized="1"
     inkscape:current-layer="svg4" />
  <!-- Font Awesome Free 5.15.3 by @fontawesome - https://fontawesome.com License - https://fontawesome.com/license/free (Icons: CC BY 4.0, Fonts: SIL OFL 1.1, Code: MIT License) -->
  <path
     d="M 9.6742991,12.530343 2.3864425,19.81827 c -0.3514872,0.351491 -0.9213368,0.351491 -1.2727865,0 L 0.26360667,18.96825 c -0.35088722,-0.35089 -0.35156222,-0.919583 -0.0015,-1.271298 L 6.037927,11.893926 0.26214417,6.0909372 c -0.35006222,-0.351716 -0.34938722,-0.920409 0.0015,-1.271299 L 1.113656,3.9696182 c 0.3514872,-0.3514909 0.9213368,-0.3514909 1.2727865,0 l 7.2878566,7.2879268 c 0.3514869,0.351453 0.3514869,0.921308 0,1.272798 z M 24,19.393991 v -1.20001 c 0,-0.497067 -0.402937,-0.900008 -0.899999,-0.900008 H 11.70001 c -0.497062,0 -0.899999,0.402941 -0.899999,0.900008 v 1.20001 c 0,0.497068 0.402937,0.900009 0.899999,0.900009 H 23.100001 C 23.597063,20.294 24,19.891059 24,19.393991 Z"
     id="path2"
     style="stroke-width:0.0375002" />
</svg>
