<?xml version="1.0" encoding="UTF-8" standalone="no"?>
<svg
   xmlns:dc="http://purl.org/dc/elements/1.1/"
   xmlns:cc="http://creativecommons.org/ns#"
   xmlns:rdf="http://www.w3.org/1999/02/22-rdf-syntax-ns#"
   xmlns:svg="http://www.w3.org/2000/svg"
   xmlns="http://www.w3.org/2000/svg"
   xmlns:sodipodi="http://sodipodi.sourceforge.net/DTD/sodipodi-0.dtd"
   xmlns:inkscape="http://www.inkscape.org/namespaces/inkscape"
   height="24"
   overflow="scroll"
   width="24"
   version="1.1"
   id="svg12"
   sodipodi:docname="latex.svg"
   inkscape:version="1.0.2 (e86c870879, 2021-01-15, custom)">
  <metadata
     id="metadata18">
    <rdf:RDF>
      <cc:Work
         rdf:about="">
        <dc:format>image/svg+xml</dc:format>
        <dc:type
           rdf:resource="http://purl.org/dc/dcmitype/StillImage" />
        <dc:title />
      </cc:Work>
    </rdf:RDF>
  </metadata>
  <defs
     id="defs16" />
  <sodipodi:namedview
     pagecolor="#ffffff"
     bordercolor="#666666"
     borderopacity="1"
     objecttolerance="10"
     gridtolerance="10"
     guidetolerance="10"
     inkscape:pageopacity="0"
     inkscape:pageshadow="2"
     inkscape:window-width="1920"
     inkscape:window-height="1017"
     id="namedview14"
     showgrid="false"
     inkscape:zoom="27.786667"
     inkscape:cx="18.582921"
     inkscape:cy="9.8131961"
     inkscape:window-x="-8"
     inkscape:window-y="-8"
     inkscape:window-maximized="1"
     inkscape:current-layer="svg12"
     inkscape:document-rotation="0" />
  <path
     id="path10"
     style="stroke-width:0.963882"
     d="m 20.887341,10.563815 1.32052,-1.927766 C 22.410277,8.327606 22.737996,8.019164 23.595852,8.009524 V 7.72036 H 21.30181 v 0.289164 c 0.385553,0.0096 0.597608,0.221694 0.597608,0.443388 0,0.09637 -0.01928,0.115664 -0.08674,0.221692 0,0 -1.098825,1.619322 -1.098825,1.619322 l -1.23377,-1.850654 c -0.01928,-0.02892 -0.06746,-0.106028 -0.06746,-0.144582 0,-0.115665 0.212053,-0.279526 0.616885,-0.289166 V 7.72036 c -0.32772,0.02892 -1.031355,0.02892 -1.397631,0.02892 -0.298803,0 -0.89641,-0.0096 -1.253047,-0.02892 v 0.289164 h 0.183139 c 0.530134,0 0.713271,0.06746 0.896409,0.337361 0,0 1.763908,2.669955 1.763908,2.669955 l -1.57113,2.322958 c -0.134944,0.192776 -0.424109,0.636161 -1.387992,0.636161 v 0.298804 h 2.294042 v -0.298804 c -0.443388,-0.0096 -0.607247,-0.269886 -0.607247,-0.443385 0,-0.08674 0.02891,-0.125306 0.09638,-0.231333 l 1.359075,-2.014515 1.522935,2.294042 c 0.01928,0.03855 0.04819,0.07711 0.04819,0.106027 0,0.115666 -0.212055,0.279526 -0.626525,0.289164 v 0.298804 c 0.337359,-0.02891 1.040993,-0.02891 1.397631,-0.02891 0.404831,0 0.848217,0.0096 1.253047,0.02891 v -0.298804 h -0.183138 c -0.501218,0 -0.703634,-0.04819 -0.90605,-0.346997 0,0 -2.024153,-3.065147 -2.024153,-3.065147 z m -2.901288,3.402506 h -0.24097 c -0.240972,1.474739 -0.462664,2.178374 -2.110904,2.178374 h -1.272325 c -0.453024,0 -0.472303,-0.06746 -0.472303,-0.385551 v -2.563929 h 0.857856 c 0.934966,0 1.040993,0.308442 1.040993,1.127743 h 0.240971 V 11.778307 H 15.7884 c 0,0.819301 -0.106027,1.118104 -1.040993,1.118104 h -0.857856 v -2.30368 c 0,-0.318081 0.01928,-0.385553 0.472303,-0.385553 h 1.233771 c 1.474741,0 1.72535,0.530135 1.87957,1.869932 h 0.240971 L 17.44628,9.918012 h -5.397745 v 0.289166 h 0.221694 c 0.742189,0 0.761466,0.106027 0.761466,0.453024 v 5.03147 c 0,0.346996 -0.01928,0.453023 -0.761466,0.453023 H 12.048535 V 16.4435 h 5.532688 z M 12.819641,7.778193 H 6.9495956 c 0,0 -0.1734989,2.159098 -0.1734989,2.159098 h 0.231331 c 0.1349439,-1.55185 0.2795261,-1.869933 1.73499,-1.869933 0.1734989,0 0.4241079,0 0.5204969,0.01928 0.202414,0.03855 0.202414,0.144583 0.202414,0.366277 v 5.060386 c 0,0.32772 0,0.462663 -1.012076,0.462663 H 8.0676997 v 0.298804 c 0.395192,-0.02891 1.368714,-0.02891 1.812099,-0.02891 0.4433873,0 1.4361853,0 1.8313773,0.02891 v -0.298804 h -0.385553 c -1.012077,0 -1.012077,-0.134943 -1.012077,-0.462663 V 8.452917 c 0,-0.192778 0,-0.327722 0.1735,-0.366277 0.106027,-0.01928 0.366274,-0.01928 0.549412,-0.01928 1.445824,0 1.590406,0.318083 1.725351,1.869933 h 0.240971 c 0,0 -0.183139,-2.159098 -0.183139,-2.159098 z M 5.0989397,7.710721 C 5.0603848,7.595055 5.0411078,7.5565 4.9158027,7.5565 c -0.1253059,0 -0.1542209,0.03855 -0.1927769,0.154221 l -1.5518519,3.932642 c -0.06747,0.163859 -0.183137,0.462665 -0.780745,0.462665 v 0.240969 h 1.4940189 v -0.240969 c -0.2988039,0 -0.4819409,-0.134945 -0.4819409,-0.327721 0,-0.04819 0.0096,-0.06746 0.02891,-0.134944 0,0 0.3277199,-0.828939 0.3277199,-0.828939 h 1.908488 l 0.385553,0.983161 c 0.01928,0.03855 0.03855,0.08674 0.03855,0.115666 0,0.192777 -0.366275,0.192777 -0.549412,0.192777 v 0.240969 h 1.8988489 v -0.240969 h -0.134944 c -0.453025,0 -0.501219,-0.06746 -0.5686909,-0.260248 0,0 -1.638601,-4.135059 -1.638601,-4.135059 z M 4.7133869,8.395078 5.5712427,10.573452 H 3.8555319 Z m 0.5494139,3.402507 h -0.240971 c -0.09639,0.98316 -0.231333,2.178374 -1.927766,2.178374 H 2.3133189 c -0.4530249,0 -0.472303,-0.06746 -0.472303,-0.385552 V 8.472189 c 0,-0.32772 0,-0.462665 0.90605,-0.462665 H 3.0651468 V 7.72036 C 2.7181488,7.74928 1.8506549,7.74928 1.4554629,7.74928 1.079549,7.74928 0.32771999,7.74928 0,7.72036 v 0.289164 h 0.22169299 c 0.74218897,0 0.76146797,0.106028 0.76146797,0.453026 v 5.060386 c 0,0.346997 -0.01928,0.453023 -0.76146797,0.453023 H 0 v 0.298804 h 5.0025519 z" />
</svg>
