<?xml version="1.0" encoding="UTF-8" standalone="no"?>
<svg
   xmlns:dc="http://purl.org/dc/elements/1.1/"
   xmlns:cc="http://creativecommons.org/ns#"
   xmlns:rdf="http://www.w3.org/1999/02/22-rdf-syntax-ns#"
   xmlns:svg="http://www.w3.org/2000/svg"
   xmlns="http://www.w3.org/2000/svg"
   xmlns:sodipodi="http://sodipodi.sourceforge.net/DTD/sodipodi-0.dtd"
   xmlns:inkscape="http://www.inkscape.org/namespaces/inkscape"
   version="1.1"
   width="24"
   height="24"
   id="svg4"
   sodipodi:docname="opengl_24.svg"
   inkscape:version="1.0.2 (e86c870879, 2021-01-15, custom)">
  <metadata
     id="metadata10">
    <rdf:RDF>
      <cc:Work
         rdf:about="">
        <dc:format>image/svg+xml</dc:format>
        <dc:type
           rdf:resource="http://purl.org/dc/dcmitype/StillImage" />
        <dc:title></dc:title>
      </cc:Work>
    </rdf:RDF>
  </metadata>
  <defs
     id="defs8" />
  <sodipodi:namedview
     pagecolor="#ffffff"
     bordercolor="#666666"
     borderopacity="1"
     objecttolerance="10"
     gridtolerance="10"
     guidetolerance="10"
     inkscape:pageopacity="0"
     inkscape:pageshadow="2"
     inkscape:window-width="1920"
     inkscape:window-height="1017"
     id="namedview6"
     showgrid="false"
     inkscape:zoom="1.6601562"
     inkscape:cx="256"
     inkscape:cy="159.62353"
     inkscape:window-x="-8"
     inkscape:window-y="-8"
     inkscape:window-maximized="1"
     inkscape:current-layer="svg4" />
  <path
     d="m 18.361961,11.798897 h 1.872317 v 2.357931 h -0.622994 l -0.09977,-0.49466 c -0.682073,1.02661 -3.327258,0.86646 -3.418994,-1.671701 -0.01844,-2.8717696 3.771688,-2.9960296 4.072766,-0.76487 h -0.93745 c -0.182809,-0.78153 -1.038275,-0.88204 -1.556931,-0.5722 -0.447734,0.26746 -0.619777,0.82792 -0.599412,1.33866 0.0043,0.893741 0.474292,1.551511 1.380307,1.450571 0.4428,-0.0493 0.84056,-0.28554 0.897613,-0.926311 H 18.36196 Z m 3.463538,1.545201 V 9.7937975 h -0.978971 v 4.3597005 h 3.154045 v -0.8094 z M 6.7861185,13.116058 c -0.4518621,1.0874 -1.8888146,1.42152 -2.8954401,0.89222 2.4825676,2.11089 8.6500156,3.0955 13.3050936,0.68715 C 11.243753,19.560948 -0.05432355,16.783948 2.1167425e-4,11.992467 0.05779682,6.9328074 11.8227,4.6079274 17.214109,9.3073174 13.18453,7.0274174 6.6247442,7.7104274 3.9635389,9.8869275 5.4552996,9.1133174 7.8879574,10.464497 6.7861185,13.116058 Z m -3.2349914,-0.19947 c 0.5591971,1.22092 2.2461158,1.08579 2.7121157,-0.0279 0.5141436,-1.229181 -0.033003,-2.675631 -1.3568059,-2.708511 -1.2714312,-0.0316 -1.9434497,1.53885 -1.3553098,2.736461 z m 12.1254669,1.23691 v -1.826601 c 0.02953,-0.57846 -0.258952,-0.8923 -0.667021,-0.98125 -0.422932,-0.0922 -0.994337,-0.009 -1.252642,0.4708 v -0.44049 h -0.443022 v 2.777541 h 0.470658 v -1.567621 c 0,-0.54536 0.409069,-1.00869 1.082364,-0.80834 0.186729,0.0556 0.325777,0.19845 0.339002,0.49691 v 1.879051 z M 7.9215474,11.375957 v 0.37595 c 0.1703581,-0.46019 1.3398626,-0.69824 1.9032968,-0.006 0.2022878,0.24852 0.3155128,0.60024 0.3155128,1.019541 0,0.22064 -0.05207,0.7581 -0.3790144,1.10025 -0.4007587,0.4194 -1.3855715,0.53434 -1.8397952,-0.0867 v 1.43228 H 7.4508637 v -3.835291 z m 0.4355867,2.321961 c 0.5569625,0.27233 1.2913642,0.12932 1.3238117,-0.92958 0.026337,-0.859451 -0.7362527,-1.298281 -1.3178036,-0.922261 -0.5920652,0.38281 -0.5767554,1.437931 -0.00601,1.851841 z m 2.5180819,-0.7953 c -0.01239,0.27227 0.08557,0.54468 0.30432,0.72696 0.363479,0.3029 1.199946,0.27494 1.314725,-0.35906 h 0.461828 c -0.1663,1.03217 -1.398815,1.11507 -2.009543,0.71989 -0.432954,-0.28015 -0.548657,-0.78929 -0.57023,-1.23567 0.01568,-1.930481 2.715341,-1.975401 2.626255,0.14788 z m 0,-0.404701 h 1.628481 c -0.131267,-1.10916 -1.564595,-0.99323 -1.628481,0 z"
     id="path2"
     style="stroke-width:0.0468761" />
</svg>
