<?xml version="1.0" encoding="UTF-8" standalone="no"?>
<svg
   xmlns:dc="http://purl.org/dc/elements/1.1/"
   xmlns:cc="http://creativecommons.org/ns#"
   xmlns:rdf="http://www.w3.org/1999/02/22-rdf-syntax-ns#"
   xmlns:svg="http://www.w3.org/2000/svg"
   xmlns="http://www.w3.org/2000/svg"
   xmlns:sodipodi="http://sodipodi.sourceforge.net/DTD/sodipodi-0.dtd"
   xmlns:inkscape="http://www.inkscape.org/namespaces/inkscape"
   viewBox="0 0 24 24"
   version="1.1"
   id="svg4"
   sodipodi:docname="c.svg"
   inkscape:version="1.0.2 (e86c870879, 2021-01-15, custom)"
   width="24"
   height="24">
  <metadata
     id="metadata10">
    <rdf:RDF>
      <cc:Work
         rdf:about="">
        <dc:format>image/svg+xml</dc:format>
        <dc:type
           rdf:resource="http://purl.org/dc/dcmitype/StillImage" />
        <dc:title></dc:title>
      </cc:Work>
    </rdf:RDF>
  </metadata>
  <defs
     id="defs8" />
  <sodipodi:namedview
     pagecolor="#ffffff"
     bordercolor="#666666"
     borderopacity="1"
     objecttolerance="10"
     gridtolerance="10"
     guidetolerance="10"
     inkscape:pageopacity="0"
     inkscape:pageshadow="2"
     inkscape:window-width="1920"
     inkscape:window-height="1017"
     id="namedview6"
     showgrid="false"
     inkscape:zoom="12.020815"
     inkscape:cx="35.51494"
     inkscape:cy="23.513547"
     inkscape:window-x="-8"
     inkscape:window-y="-8"
     inkscape:window-maximized="1"
     inkscape:current-layer="svg4"
     inkscape:document-rotation="0" />
  <path
     d="M 12,0 C 11.626727,0 11.25392,0.093195 10.92076,0.2802548 L 2.1329507,5.2188534 C 1.4608906,5.5966246 1.0425,6.3027035 1.0425,7.0624202 v 9.8761788 c 0,0.759195 0.4178688,1.464776 1.0904507,1.842548 L 10.92076,23.719746 C 11.25366,23.906543 11.626923,24 12,24 c 0.373077,0 0.746341,-0.09294 1.079241,-0.280254 l 8.787808,-4.93758 C 22.539631,18.403351 22.9575,17.696775 22.9575,16.93758 V 7.0624202 c 0,-0.7597167 -0.418391,-1.4657956 -1.090451,-1.8435668 L 13.079241,0.2802548 C 12.746341,0.0931954 12.373273,0 12,0 Z m 0,5.7385987 c 1.972351,0 3.796496,0.9153303 4.979385,2.4733752 l -2.28587,1.3238224 C 14.005802,8.7844279 13.029483,8.3475159 12,8.3475159 9.9859071,8.3475159 8.3475001,9.9859163 8.3475001,12 c 0,2.014084 1.638407,3.652484 3.6524999,3.652484 1.029483,0 2.005802,-0.436912 2.693515,-1.18828 l 2.28587,1.323822 C 15.796496,17.346071 13.972351,18.261401 12,18.261401 8.5473441,18.261401 5.7385714,15.452641 5.7385714,12 5.7385714,8.5473589 8.5473441,5.7385987 12,5.7385987 Z"
     id="path2"
     sodipodi:nodetypes="sccssccsccssccssccsssccsss"
     style="stroke-width:0.521784" />
</svg>
