<?xml version="1.0" encoding="UTF-8" standalone="no"?>
<svg
   xmlns:dc="http://purl.org/dc/elements/1.1/"
   xmlns:cc="http://creativecommons.org/ns#"
   xmlns:rdf="http://www.w3.org/1999/02/22-rdf-syntax-ns#"
   xmlns:svg="http://www.w3.org/2000/svg"
   xmlns="http://www.w3.org/2000/svg"
   xmlns:sodipodi="http://sodipodi.sourceforge.net/DTD/sodipodi-0.dtd"
   xmlns:inkscape="http://www.inkscape.org/namespaces/inkscape"
   viewBox="0 0 24 24"
   version="1.1"
   id="svg4"
   sodipodi:docname="linux.svg"
   width="24"
   height="24"
   inkscape:version="1.0.2 (e86c870879, 2021-01-15, custom)">
  <metadata
     id="metadata10">
    <rdf:RDF>
      <cc:Work
         rdf:about="">
        <dc:format>image/svg+xml</dc:format>
        <dc:type
           rdf:resource="http://purl.org/dc/dcmitype/StillImage" />
        <dc:title></dc:title>
      </cc:Work>
    </rdf:RDF>
  </metadata>
  <defs
     id="defs8" />
  <sodipodi:namedview
     pagecolor="#ffffff"
     bordercolor="#666666"
     borderopacity="1"
     objecttolerance="10"
     gridtolerance="10"
     guidetolerance="10"
     inkscape:pageopacity="0"
     inkscape:pageshadow="2"
     inkscape:window-width="1920"
     inkscape:window-height="1017"
     id="namedview6"
     showgrid="false"
     inkscape:zoom="13.28125"
     inkscape:cx="35.060285"
     inkscape:cy="29.13247"
     inkscape:window-x="-8"
     inkscape:window-y="-8"
     inkscape:window-maximized="1"
     inkscape:current-layer="svg4" />
  <!-- Font Awesome Free 5.15.3 by @fontawesome - https://fontawesome.com License - https://fontawesome.com/license/free (Icons: CC BY 4.0, Fonts: SIL OFL 1.1, Code: MIT License) -->
  <path
     d="m 11.845395,5.7792199 c 0.04687,0.023436 0.08437,0.079681 0.14061,0.079681 0.05156,0 0.131237,-0.018748 0.135924,-0.070307 0.0094,-0.06562 -0.08905,-0.1078035 -0.149985,-0.1359261 -0.07968,-0.03281 -0.182793,-0.046871 -0.257786,-0.00469 -0.01875,0.00937 -0.0375,0.03281 -0.02812,0.051558 0.01406,0.060932 0.107802,0.051558 0.159359,0.079681 z m -1.026456,0.079681 c 0.05624,0 0.09374,-0.056245 0.14061,-0.079681 0.05156,-0.028123 0.145298,-0.018748 0.164045,-0.074994 0.0094,-0.018749 -0.0094,-0.042184 -0.02812,-0.051558 -0.07499,-0.042184 -0.178107,-0.028123 -0.257786,0.00469 -0.06093,0.028123 -0.159359,0.070307 -0.149985,0.1359262 0.0047,0.046871 0.08437,0.070307 0.131237,0.065619 z M 21.181927,18.926563 c -0.168733,-0.187485 -0.248412,-0.543705 -0.337465,-0.923361 -0.08437,-0.379656 -0.182793,-0.787434 -0.492137,-1.049913 -0.06093,-0.05156 -0.121862,-0.09843 -0.18748,-0.135926 -0.06093,-0.0375 -0.12655,-0.07031 -0.192168,-0.09374 0.431206,-1.279581 0.262473,-2.554475 -0.17342,-3.707504 -0.534319,-1.41082 -1.467035,-2.64353 -2.179461,-3.4872092 C 16.818317,8.5211791 16.040272,7.5650087 16.054334,6.1541887 16.077768,4.0028053 16.293371,0.00470066 12.501577,1.3553928e-5 7.7020741,-0.00936067 8.9019496,4.8464851 8.8503927,6.336986 8.7707143,7.4337697 8.5504238,8.2961979 7.7958142,9.369546 c -0.8858449,1.0546 -2.1325914,2.75602 -2.7231544,4.532435 -0.2812212,0.838993 -0.4124576,1.692047 -0.290595,2.498229 -0.3046558,0.271853 -0.5343201,0.689006 -0.7780442,0.946797 -0.1968549,0.201545 -0.4827631,0.276539 -0.7967927,0.38903 -0.3140306,0.11249 -0.6561826,0.281226 -0.8670973,0.679631 -0.098428,0.182797 -0.1312373,0.379656 -0.1312373,0.581201 0,0.182798 0.028119,0.370282 0.056249,0.553079 0.056239,0.379656 0.1171756,0.735876 0.037499,0.974919 -0.2437251,0.674944 -0.2765344,1.143655 -0.1031149,1.485814 0.1781063,0.342159 0.5343201,0.492146 0.9420897,0.576514 0.8108535,0.168736 1.912302,0.126552 2.7793993,0.585889 0.9280291,0.487459 1.8701188,0.660883 2.6200415,0.487459 0.5436929,-0.121864 0.9889598,-0.449962 1.2139362,-0.946796 0.5858769,-0.0047 1.2326849,-0.253104 2.2638279,-0.309349 0.698366,-0.05624 1.574837,0.248417 2.582545,0.192172 0.02812,0.107803 0.06562,0.215607 0.117175,0.314036 v 0.0047 c 0.389023,0.782747 1.11551,1.138968 1.888867,1.078035 0.778044,-0.06093 1.598272,-0.515582 2.263828,-1.307703 0.637434,-0.768686 1.687325,-1.08741 2.38569,-1.50925 0.346839,-0.21092 0.62806,-0.473398 0.651495,-0.857741 0.01875,-0.384343 -0.206229,-0.81087 -0.726487,-1.392071 z M 11.981318,4.0918604 c 0.459327,-1.0405384 1.602959,-1.0217899 2.062287,-0.018748 0.304655,0.6655696 0.168732,1.4483169 -0.201542,1.8935923 -0.07499,-0.037497 -0.276535,-0.1218648 -0.590564,-0.2296684 0.05156,-0.056245 0.145297,-0.1265519 0.182793,-0.215607 0.224978,-0.553079 -0.0094,-1.2655196 -0.426518,-1.279581 C 12.665622,4.2184124 12.356279,4.7480558 12.454706,5.3198832 12.262539,5.226141 12.014127,5.1558343 11.845395,5.1136503 11.798525,4.7902398 11.831334,4.4293323 11.981318,4.0918604 Z M 10.073704,3.5528428 c 0.473388,0 0.974898,0.6655696 0.895219,1.5701818 -0.164045,0.046871 -0.332778,0.1171777 -0.478076,0.215607 C 10.547097,4.9214788 10.336176,4.3965225 10.040894,4.4199581 9.6471854,4.4527681 9.5815668,5.4136254 9.956526,5.7370359 10.003395,5.7745329 10.045574,5.7276659 9.6799917,5.994827 8.9488177,5.3105089 9.1878558,3.5528428 10.073702,3.5528428 Z M 9.4362697,6.3979184 c 0.2905951,-0.215607 0.6374343,-0.468711 0.6608683,-0.4921465 0.22029,-0.2062328 0.632747,-0.6655696 1.307678,-0.6655696 0.332778,0 0.731174,0.1078035 1.213936,0.4171528 0.295282,0.1921715 0.529633,0.2062328 1.059265,0.4359012 0.393709,0.1640488 0.642121,0.4546496 0.492137,0.853054 -0.121862,0.3327848 -0.515571,0.6749438 -1.063952,0.8483668 -0.52026,0.168736 -0.928029,0.7499376 -1.79044,0.6983794 -0.182794,-0.00937 -0.328091,-0.046871 -0.449953,-0.098429 C 10.490847,8.2305783 10.293993,7.9071678 9.9284057,7.6915607 9.5253229,7.4665794 9.3097203,7.2041013 9.2394148,6.9744329 c -0.065619,-0.2296684 0,-0.4218399 0.1968549,-0.5765145 z M 9.5909406,22.052865 C 9.4643912,23.69804 7.5333416,23.665231 6.0616196,22.896545 4.6602022,22.155981 2.8463273,22.591882 2.4760538,21.870068 2.3635651,21.649773 2.3635651,21.274805 2.5979163,20.632671 v -0.0094 c 0.1124877,-0.35622 0.028119,-0.749937 -0.028119,-1.120219 -0.056249,-0.365594 -0.084368,-0.703066 0.042179,-0.937422 0.1640456,-0.314036 0.3983958,-0.426527 0.6936778,-0.529643 0.4827621,-0.173423 0.5530677,-0.159362 0.9186552,-0.464024 0.2577858,-0.267165 0.4452659,-0.604637 0.6702424,-0.84368 0.2390381,-0.257791 0.4687014,-0.379656 0.829602,-0.32341 0.3796483,0.05625 0.7077386,0.318723 1.0264561,0.749937 l 0.9186542,1.668611 c 0.4452669,0.932735 2.0201038,2.268561 1.9216758,3.229419 z M 9.5253219,20.838903 C 9.3331538,20.529554 9.0753681,20.201456 8.8503917,19.92023 c 0.3327782,0 0.6655564,-0.103117 0.782731,-0.417153 0.1078018,-0.290601 0,-0.698379 -0.3468389,-1.16709 C 8.6535367,17.482933 7.4911574,16.812676 7.4911574,16.812676 6.8584104,16.418959 6.5021976,15.936187 6.338152,15.41123 6.1741063,14.886274 6.1975419,14.319134 6.3240923,13.761368 c 0.243725,-1.073348 0.8717842,-2.118574 1.2748679,-2.774769 0.1078008,-0.07968 0.037499,0.149987 -0.4077706,0.974919 -0.3983959,0.754624 -1.1436317,2.498229 -0.1218625,3.862178 0.028119,-0.970232 0.2577857,-1.959212 0.6468078,-2.882573 0.5624425,-1.284268 1.7482563,-3.5106446 1.8419974,-5.2823721 0.051559,0.037497 0.2156026,0.1499876 0.290594,0.1921715 0.2156027,0.126552 0.3796487,0.3140364 0.5905637,0.4827724 0.58119,0.4687109 1.3358,0.431214 1.987295,0.056245 0.290595,-0.1640489 0.524945,-0.3515333 0.745234,-0.4218399 0.464015,-0.1453004 0.834289,-0.4030915 1.045205,-0.7030665 0.3609,1.4248814 1.204563,3.4825226 1.74357,4.4855646 0.285907,0.53433 0.857723,1.663924 1.106134,3.027872 0.154672,-0.0047 0.328091,0.01875 0.510885,0.06562 0.646808,-1.673298 -0.54838,-3.477835 -1.092074,-3.979356 -0.22029,-0.215607 -0.229664,-0.309349 -0.121863,-0.304662 0.590564,0.524956 1.368608,1.579556 1.64983,2.765394 0.131236,0.543705 0.15467,1.110845 0.01875,1.673299 0.768671,0.318723 1.682638,0.838992 1.438914,1.631114 -0.103115,-0.0047 -0.149985,0 -0.196855,0 0.149985,-0.473398 -0.182793,-0.824931 -1.068639,-1.223336 -0.918655,-0.403091 -1.687325,-0.403091 -1.795127,0.585889 -0.567128,0.196859 -0.857723,0.689005 -1.00302,1.279581 -0.131236,0.524956 -0.168733,1.157716 -0.206229,1.870157 -0.02344,0.360907 -0.168733,0.843679 -0.318717,1.359262 -1.504532,1.073348 -3.59494,1.542059 -5.3572571,0.337471 z M 21.589696,20.299886 c -0.04218,0.787434 -1.93105,0.932735 -2.962193,2.179506 -0.618686,0.735876 -1.377982,1.143655 -2.043538,1.195213 -0.665556,0.05156 -1.242059,-0.224981 -1.579524,-0.904612 -0.220289,-0.52027 -0.112488,-1.082723 0.05156,-1.701421 0.173419,-0.66557 0.431205,-1.349888 0.464015,-1.902967 0.0375,-0.71244 0.07968,-1.335826 0.196855,-1.813911 0.121862,-0.482773 0.309342,-0.806183 0.64212,-0.98898 0.01406,-0.0094 0.03281,-0.01406 0.04687,-0.02344 0.0375,0.618699 0.342152,1.246771 0.881159,1.382697 0.590563,0.154675 1.438913,-0.351533 1.799814,-0.763998 0.421831,-0.01406 0.735861,-0.04218 1.059265,0.239042 0.464014,0.398404 0.332777,1.420194 0.801479,1.949838 0.496824,0.543705 0.656182,0.913986 0.642121,1.153029 z M 9.619063,6.9697458 c 0.093738,0.089055 0.2202895,0.2109199 0.3749614,0.3327848 0.3093426,0.2437297 0.7405476,0.4968336 1.2795546,0.4968336 0.543693,0 1.054578,-0.2765394 1.490471,-0.5062078 0.229663,-0.1218649 0.510884,-0.3280977 0.693678,-0.4874594 0.182793,-0.1593618 0.276533,-0.295288 0.145297,-0.3093493 -0.131237,-0.014061 -0.121863,0.1218649 -0.281221,0.2390426 -0.206228,0.1499875 -0.45464,0.3468461 -0.651495,0.4593368 -0.346839,0.1968586 -0.913968,0.4780852 -1.401417,0.4780852 -0.48745,0 -0.876472,-0.2249813 -1.167067,-0.4546497 C 9.9565281,7.1009849 9.8346656,6.9838071 9.7409255,6.8947521 9.670617,6.8291321 9.6518773,6.679145 9.5393836,6.6650837 9.473765,6.6603937 9.4550154,6.8385067 9.619062,6.9697458 Z"
     id="path2"
     style="stroke-width:0.0468706" />
</svg>
