<svg width="24" height="24" version="1.1" viewBox="0 0 24 24" xmlns="http://www.w3.org/2000/svg">
 <path d="m5 0c-2.76 0-5 2.24-5 5v14c0 2.76 2.24 5 5 5h14c2.76 0 5-2.24 5-5v-14c0-2.76-2.24-5-5-5h-14zm4.18 4c1.56 0 2.65 1.5 1.17 4.29-0.487 0.919 0.518 1.14 1.6 1.39 0.968 0.224 0.998 0.704 0.994 1.55v0.305h-7.53v-0.312c-0.00282-0.838 0.0323-1.32 0.996-1.54 1.06-0.244 2.1-0.462 1.6-1.39-1.48-2.74-0.424-4.29 1.17-4.29zm5.65 3.77h3.76v0.939h-3.76v-0.939zm0 2.82h3.76v0.941h-3.76v-0.941zm-9.41 2.82h13.2v0.941h-13.2v-0.941zm0 2.82h13.2v0.941h-13.2v-0.941zm0 2.82h13.2v0.941h-13.2v-0.941z"/>
</svg>
