<?xml version="1.0" encoding="UTF-8" standalone="no"?>
<svg
   xmlns:dc="http://purl.org/dc/elements/1.1/"
   xmlns:cc="http://creativecommons.org/ns#"
   xmlns:rdf="http://www.w3.org/1999/02/22-rdf-syntax-ns#"
   xmlns:svg="http://www.w3.org/2000/svg"
   xmlns="http://www.w3.org/2000/svg"
   xmlns:sodipodi="http://sodipodi.sourceforge.net/DTD/sodipodi-0.dtd"
   xmlns:inkscape="http://www.inkscape.org/namespaces/inkscape"
   width="24"
   height="24"
   viewBox="0 0 24 24"
   version="1.1"
   id="svg4"
   sodipodi:docname="linkedin.svg"
   inkscape:version="1.0.2 (e86c870879, 2021-01-15, custom)">
  <metadata
     id="metadata10">
    <rdf:RDF>
      <cc:Work
         rdf:about="">
        <dc:format>image/svg+xml</dc:format>
        <dc:type
           rdf:resource="http://purl.org/dc/dcmitype/StillImage" />
        <dc:title />
      </cc:Work>
    </rdf:RDF>
  </metadata>
  <defs
     id="defs8" />
  <sodipodi:namedview
     pagecolor="#ffffff"
     bordercolor="#666666"
     borderopacity="1"
     objecttolerance="10"
     gridtolerance="10"
     guidetolerance="10"
     inkscape:pageopacity="0"
     inkscape:pageshadow="2"
     inkscape:window-width="1920"
     inkscape:window-height="1017"
     id="namedview6"
     showgrid="false"
     inkscape:zoom="17.708334"
     inkscape:cx="20.781882"
     inkscape:cy="18.866217"
     inkscape:window-x="-8"
     inkscape:window-y="-8"
     inkscape:window-maximized="1"
     inkscape:current-layer="svg4"
     inkscape:document-rotation="0" />
  <path
     id="path2"
     style="stroke-width:1"
     d="M 5 0 C 2.239 0 0 2.239 0 5 L 0 19 C 0 21.761 2.239 24 5 24 L 19 24 C 21.762 24 24 21.761 24 19 L 24 5 C 24 2.239 21.762 0 19 0 L 5 0 z M 6.0488281 4 C 7.0273068 4 7.8222656 4.8005305 7.8222656 5.7871094 C 7.8222656 6.7736882 7.0283197 7.5742187 6.0488281 7.5742188 C 5.0703492 7.5742188 4.2773437 6.7736882 4.2773438 5.7871094 C 4.2773438 4.8005305 5.0703492 4 6.0488281 4 z M 4.5292969 8.8574219 L 7.5683594 8.8574219 L 7.5683594 20 L 4.5292969 20 L 4.5292969 8.8574219 z M 9.59375 8.8574219 L 12.632812 8.8574219 L 12.632812 10.646484 C 14.046845 8.0270872 19.722656 7.833456 19.722656 13.154297 L 19.722656 20 L 16.685547 20 L 16.685547 14.324219 C 16.685547 10.912723 12.632812 11.171016 12.632812 14.324219 L 12.632812 20 L 9.59375 20 L 9.59375 8.8574219 z " />
</svg>
