<?xml version="1.0" encoding="UTF-8" standalone="no"?>
<svg
   xmlns:dc="http://purl.org/dc/elements/1.1/"
   xmlns:cc="http://creativecommons.org/ns#"
   xmlns:rdf="http://www.w3.org/1999/02/22-rdf-syntax-ns#"
   xmlns:svg="http://www.w3.org/2000/svg"
   xmlns="http://www.w3.org/2000/svg"
   xmlns:sodipodi="http://sodipodi.sourceforge.net/DTD/sodipodi-0.dtd"
   xmlns:inkscape="http://www.inkscape.org/namespaces/inkscape"
   width="24"
   height="24"
   fill-rule="evenodd"
   clip-rule="evenodd"
   version="1.1"
   id="svg4"
   sodipodi:docname="cv_inside.svg"
   inkscape:version="1.0.2 (e86c870879, 2021-01-15, custom)">
  <metadata
     id="metadata10">
    <rdf:RDF>
      <cc:Work
         rdf:about="">
        <dc:format>image/svg+xml</dc:format>
        <dc:type
           rdf:resource="http://purl.org/dc/dcmitype/StillImage" />
      </cc:Work>
    </rdf:RDF>
  </metadata>
  <defs
     id="defs8" />
  <sodipodi:namedview
     pagecolor="#ffffff"
     bordercolor="#666666"
     borderopacity="1"
     objecttolerance="10"
     gridtolerance="10"
     guidetolerance="10"
     inkscape:pageopacity="0"
     inkscape:pageshadow="2"
     inkscape:window-width="1920"
     inkscape:window-height="1017"
     id="namedview6"
     showgrid="false"
     inkscape:zoom="17.708333"
     inkscape:cx="5.6752553"
     inkscape:cy="16.622655"
     inkscape:window-x="-8"
     inkscape:window-y="-8"
     inkscape:window-maximized="1"
     inkscape:current-layer="svg4" />
  <path
     d="M 19,8 V 7 h -4 v 1 z"
     id="path22" />
  <path
     d="m 19,10 h -4 v 1 h 4 z"
     id="path20" />
  <path
     d="M 11.941,9.032 C 10.794,8.767 9.727,8.535 10.244,7.559 11.817,4.589 10.661,3 9,3 7.306,3 6.179,4.65 7.756,7.559 8.288,8.541 7.181,8.773 6.059,9.032 5.035,9.269 4.997,9.777 5,10.667 L 5.001,11 h 7.997 l 0.001,-0.323 C 13.003,9.781 12.969,9.27 11.941,9.032 Z"
     id="path18" />
  <path
     d="M 19,14 V 13 H 5 v 1 z"
     id="path16" />
  <path
     d="M 19,16 H 5 v 1 h 14 z"
     id="path14"
     style="stroke-width:1.32288" />
  <path
     d="M 19,19 H 5 v 1 h 14 z"
     id="path2"
     style="stroke-width:1.32288" />
</svg>
