<svg width="24" height="24" version="1.1" viewBox="0 0 24 24" xmlns="http://www.w3.org/2000/svg">
 <path d="m21.9 5.22-8.79-4.94c-0.666-0.374-1.49-0.374-2.16 0l-8.79 4.94c-0.672 0.378-1.09 1.08-1.09 1.84v9.88c0 0.759 0.417 1.47 1.09 1.84l8.79 4.94c0.333 0.187 0.706 0.281 1.08 0.281s0.747-0.0934 1.08-0.281l8.79-4.94c0.673-0.379 1.09-1.09 1.09-1.84v-9.88c0-0.76-0.418-1.47-1.09-1.84zm-9.87 13c-3.45 0-6.26-2.81-6.26-6.26s2.81-6.26 6.26-6.26c1.97 0 3.8 0.916 4.98 2.47l-2.29 1.32c-0.688-0.751-1.66-1.19-2.69-1.19-2.01 0-3.65 1.64-3.65 3.65s1.64 3.65 3.65 3.65c1.03 0 2.01-0.437 2.69-1.19l2.29 1.32c-1.18 1.56-3.01 2.47-4.98 2.47zm6.26-5.74h-1.04v1.04h-1.04v-1.04h-1.04v-1.04h1.04v-1.04h1.04v1.04h1.04zm3.65 0h-1.04v1.04h-1.04v-1.04h-1.04v-1.04h1.04v-1.04h1.04v1.04h1.04z" stroke-width=".522"/>
</svg>
