<svg width="24" height="24" version="1.1" viewBox="0 0 24 24" xmlns="http://www.w3.org/2000/svg">
 <path d="m10.1 7.42h-3.72c-1.88-0.492-6.12-0.364-6.12 3.51 0 1.41 0.703 2.4 1.64 2.86-1.18 1.08-1.73 1.59-1.73 2.31 0 0.516 0.21 0.991 0.839 1.26-0.669 0.629-1.05 1.09-1.05 1.94 0 1.51 1.31 2.38 4.76 2.38 3.32 0 5.24-1.24 5.24-3.43 0-2.75-2.12-2.65-7.11-2.95l0.63-1.01c1.28 0.355 5.56 0.469 5.56-3.18 0-0.877-0.362-1.49-0.703-1.93l1.75-0.133zm-2.97 11.3c0 1.5-4.92 1.5-4.92 0.114 0-0.382 0.247-0.703 0.495-1.01 3.64 0.248 4.42 0.158 4.42 0.896zm-2.38-6.31c-2.48 0-2.37-3.34 0.0563-3.34 2.32 0 2.38 3.34-0.0563 3.34zm6.25 4.71v-1.5c1.25-0.172 1.28-0.0938 1.28-0.516v-5.6c0-0.398-0.0961-0.346-1.28-0.762l0.21-1.54h3.95v7.91c0 0.305 0.0188 0.343 0.305 0.382l0.972 0.133v1.5zm2.46-11.5c-1.09 0-1.72-0.63-1.72-1.72 0-1.09 0.629-1.68 1.72-1.68 1.11 0 1.73 0.592 1.73 1.68 0 1.09-0.629 1.72-1.73 1.72zm10.5 10.7c-0.82 0.4-2.02 0.762-3.11 0.762-2.27 0-3.13-0.914-3.13-3.07v-4.99c0-0.254 0.0492-0.19-1.49-0.19v-1.7c1.68-0.191 2.34-1.03 2.55-3.11h1.81c0 3.09-0.0628 2.9 0.153 2.9h2.69v1.91h-2.84v4.55c0 0.324-0.231 2.41 2.84 1.26z" stroke-width=".0469"/>
</svg>
