<svg width="24" height="24" overflow="scroll" version="1.1" xmlns="http://www.w3.org/2000/svg">
 <path d="m20.9 10.6 1.32-1.93c0.202-0.308 0.53-0.617 1.39-0.627v-0.289h-2.29v0.289c0.386 0.0096 0.598 0.222 0.598 0.443 0 0.0964-0.0193 0.116-0.0867 0.222l-1.1 1.62-1.23-1.85c-0.0193-0.0289-0.0675-0.106-0.0675-0.145 0-0.116 0.212-0.28 0.617-0.289v-0.289c-0.328 0.0289-1.03 0.0289-1.4 0.0289-0.299 0-0.896-0.0096-1.25-0.0289v0.289h0.183c0.53 0 0.713 0.0675 0.896 0.337l1.76 2.67-1.57 2.32c-0.135 0.193-0.424 0.636-1.39 0.636v0.299h2.29v-0.299c-0.443-0.0096-0.607-0.27-0.607-0.443 0-0.0867 0.0289-0.125 0.0964-0.231l1.36-2.01 1.52 2.29c0.0193 0.0386 0.0482 0.0771 0.0482 0.106 0 0.116-0.212 0.28-0.627 0.289v0.299c0.337-0.0289 1.04-0.0289 1.4-0.0289 0.405 0 0.848 0.0096 1.25 0.0289v-0.299h-0.183c-0.501 0-0.704-0.0482-0.906-0.347l-2.02-3.07zm-2.9 3.4h-0.241c-0.241 1.47-0.463 2.18-2.11 2.18h-1.27c-0.453 0-0.472-0.0675-0.472-0.386v-2.56h0.858c0.935 0 1.04 0.308 1.04 1.13h0.241v-2.54h-0.241c0 0.819-0.106 1.12-1.04 1.12h-0.858v-2.3c0-0.318 0.0193-0.386 0.472-0.386h1.23c1.47 0 1.73 0.53 1.88 1.87h0.241l-0.27-2.16h-5.4v0.289h0.222c0.742 0 0.761 0.106 0.761 0.453v5.03c0 0.347-0.0193 0.453-0.761 0.453h-0.222v0.299h5.53zm-5.17-6.19h-5.87s-0.173 2.16-0.173 2.16h0.231c0.135-1.55 0.28-1.87 1.73-1.87 0.173 0 0.424 0 0.52 0.0193 0.202 0.0386 0.202 0.145 0.202 0.366v5.06c0 0.328 0 0.463-1.01 0.463h-0.386v0.299c0.395-0.0289 1.37-0.0289 1.81-0.0289 0.443 0 1.44 0 1.83 0.0289v-0.299h-0.386c-1.01 0-1.01-0.135-1.01-0.463v-5.06c0-0.193 0-0.328 0.174-0.366 0.106-0.0193 0.366-0.0193 0.549-0.0193 1.45 0 1.59 0.318 1.73 1.87h0.241s-0.183-2.16-0.183-2.16zm-7.72-0.0675c-0.0386-0.116-0.0578-0.154-0.183-0.154-0.125 0-0.154 0.0386-0.193 0.154l-1.55 3.93c-0.0675 0.164-0.183 0.463-0.781 0.463v0.241h1.49v-0.241c-0.299 0-0.482-0.135-0.482-0.328 0-0.0482 0.0096-0.0675 0.0289-0.135 0 0 0.328-0.829 0.328-0.829h1.91l0.386 0.983c0.0193 0.0386 0.0386 0.0867 0.0386 0.116 0 0.193-0.366 0.193-0.549 0.193v0.241h1.9v-0.241h-0.135c-0.453 0-0.501-0.0675-0.569-0.26l-1.64-4.14zm-0.386 0.684 0.858 2.18h-1.72zm0.549 3.4h-0.241c-0.0964 0.983-0.231 2.18-1.93 2.18h-0.781c-0.453 0-0.472-0.0675-0.472-0.386v-5.12c0-0.328 0-0.463 0.906-0.463h0.318v-0.289c-0.347 0.0289-1.21 0.0289-1.61 0.0289-0.376 0-1.13 0-1.46-0.0289v0.289h0.222c0.742 0 0.761 0.106 0.761 0.453v5.06c0 0.347-0.0193 0.453-0.761 0.453h-0.222v0.299h5z" stroke-width=".964"/>
</svg>
