<svg width="24" height="24" version="1.1" viewBox="0 0 24 24" xmlns="http://www.w3.org/2000/svg">
 <path d="m11.8 5.78c0.0469 0.0234 0.0844 0.0797 0.141 0.0797 0.0516 0 0.131-0.0187 0.136-0.0703 0.0094-0.0656-0.089-0.108-0.15-0.136-0.0797-0.0328-0.183-0.0469-0.258-0.00469-0.0188 0.00937-0.0375 0.0328-0.0281 0.0516 0.0141 0.0609 0.108 0.0516 0.159 0.0797zm-1.03 0.0797c0.0562 0 0.0937-0.0562 0.141-0.0797 0.0516-0.0281 0.145-0.0187 0.164-0.075 0.0094-0.0187-0.0094-0.0422-0.0281-0.0516-0.075-0.0422-0.178-0.0281-0.258 0.00469-0.0609 0.0281-0.159 0.0703-0.15 0.136 0.0047 0.0469 0.0844 0.0703 0.131 0.0656zm10.4 13.1c-0.169-0.187-0.248-0.544-0.337-0.923-0.0844-0.38-0.183-0.787-0.492-1.05-0.0609-0.0516-0.122-0.0984-0.187-0.136-0.0609-0.0375-0.127-0.0703-0.192-0.0937 0.431-1.28 0.262-2.55-0.173-3.71-0.534-1.41-1.47-2.64-2.18-3.49-0.801-1.01-1.58-1.96-1.57-3.37 0.0234-2.15 0.239-6.15-3.55-6.15-4.8-0.00937-3.6 4.85-3.65 6.34-0.0797 1.1-0.3 1.96-1.05 3.03-0.886 1.05-2.13 2.76-2.72 4.53-0.281 0.839-0.412 1.69-0.291 2.5-0.305 0.272-0.534 0.689-0.778 0.947-0.197 0.202-0.483 0.277-0.797 0.389-0.314 0.112-0.656 0.281-0.867 0.68-0.0984 0.183-0.131 0.38-0.131 0.581 0 0.183 0.0281 0.37 0.0562 0.553 0.0562 0.38 0.117 0.736 0.0375 0.975-0.244 0.675-0.277 1.14-0.103 1.49 0.178 0.342 0.534 0.492 0.942 0.577 0.811 0.169 1.91 0.127 2.78 0.586 0.928 0.487 1.87 0.661 2.62 0.487 0.544-0.122 0.989-0.45 1.21-0.947 0.586-0.0047 1.23-0.253 2.26-0.309 0.698-0.0562 1.57 0.248 2.58 0.192 0.0281 0.108 0.0656 0.216 0.117 0.314v0.0047c0.389 0.783 1.12 1.14 1.89 1.08 0.778-0.0609 1.6-0.516 2.26-1.31 0.637-0.769 1.69-1.09 2.39-1.51 0.347-0.211 0.628-0.473 0.651-0.858 0.0188-0.384-0.206-0.811-0.726-1.39zm-9.2-14.8c0.459-1.04 1.6-1.02 2.06-0.0187 0.305 0.666 0.169 1.45-0.202 1.89-0.075-0.0375-0.277-0.122-0.591-0.23 0.0516-0.0562 0.145-0.127 0.183-0.216 0.225-0.553-0.0094-1.27-0.427-1.28-0.342-0.0234-0.651 0.506-0.553 1.08-0.192-0.0937-0.441-0.164-0.609-0.206-0.0469-0.323-0.0141-0.684 0.136-1.02zm-1.91-0.539c0.473 0 0.975 0.666 0.895 1.57-0.164 0.0469-0.333 0.117-0.478 0.216 0.0562-0.417-0.155-0.942-0.45-0.919-0.394 0.0328-0.459 0.994-0.0844 1.32 0.0469 0.0375 0.089-0.00937-0.277 0.258-0.731-0.684-0.492-2.44 0.394-2.44zm-0.637 2.85c0.291-0.216 0.637-0.469 0.661-0.492 0.22-0.206 0.633-0.666 1.31-0.666 0.333 0 0.731 0.108 1.21 0.417 0.295 0.192 0.53 0.206 1.06 0.436 0.394 0.164 0.642 0.455 0.492 0.853-0.122 0.333-0.516 0.675-1.06 0.848-0.52 0.169-0.928 0.75-1.79 0.698-0.183-0.00937-0.328-0.0469-0.45-0.0984-0.375-0.164-0.572-0.487-0.937-0.703-0.403-0.225-0.619-0.487-0.689-0.717-0.0656-0.23 0-0.422 0.197-0.577zm0.155 15.7c-0.127 1.65-2.06 1.61-3.53 0.844-1.4-0.741-3.22-0.305-3.59-1.03-0.112-0.22-0.112-0.595 0.122-1.24v-0.0094c0.112-0.356 0.0281-0.75-0.0281-1.12-0.0562-0.366-0.0844-0.703 0.0422-0.937 0.164-0.314 0.398-0.427 0.694-0.53 0.483-0.173 0.553-0.159 0.919-0.464 0.258-0.267 0.445-0.605 0.67-0.844 0.239-0.258 0.469-0.38 0.83-0.323 0.38 0.0562 0.708 0.319 1.03 0.75l0.919 1.67c0.445 0.933 2.02 2.27 1.92 3.23zm-0.0656-1.21c-0.192-0.309-0.45-0.637-0.675-0.919 0.333 0 0.666-0.103 0.783-0.417 0.108-0.291 0-0.698-0.347-1.17-0.633-0.853-1.8-1.52-1.8-1.52-0.633-0.394-0.989-0.876-1.15-1.4-0.164-0.525-0.141-1.09-0.0141-1.65 0.244-1.07 0.872-2.12 1.27-2.77 0.108-0.0797 0.0375 0.15-0.408 0.975-0.398 0.755-1.14 2.5-0.122 3.86 0.0281-0.97 0.258-1.96 0.647-2.88 0.562-1.28 1.75-3.51 1.84-5.28 0.0516 0.0375 0.216 0.15 0.291 0.192 0.216 0.127 0.38 0.314 0.591 0.483 0.581 0.469 1.34 0.431 1.99 0.0562 0.291-0.164 0.525-0.352 0.745-0.422 0.464-0.145 0.834-0.403 1.05-0.703 0.361 1.42 1.2 3.48 1.74 4.49 0.286 0.534 0.858 1.66 1.11 3.03 0.155-0.0047 0.328 0.0188 0.511 0.0656 0.647-1.67-0.548-3.48-1.09-3.98-0.22-0.216-0.23-0.309-0.122-0.305 0.591 0.525 1.37 1.58 1.65 2.77 0.131 0.544 0.155 1.11 0.0188 1.67 0.769 0.319 1.68 0.839 1.44 1.63-0.103-0.0047-0.15 0-0.197 0 0.15-0.473-0.183-0.825-1.07-1.22-0.919-0.403-1.69-0.403-1.8 0.586-0.567 0.197-0.858 0.689-1 1.28-0.131 0.525-0.169 1.16-0.206 1.87-0.0234 0.361-0.169 0.844-0.319 1.36-1.5 1.07-3.59 1.54-5.36 0.337zm12.1-0.539c-0.0422 0.787-1.93 0.933-2.96 2.18-0.619 0.736-1.38 1.14-2.04 1.2-0.666 0.0516-1.24-0.225-1.58-0.905-0.22-0.52-0.112-1.08 0.0516-1.7 0.173-0.666 0.431-1.35 0.464-1.9 0.0375-0.712 0.0797-1.34 0.197-1.81 0.122-0.483 0.309-0.806 0.642-0.989 0.0141-0.0094 0.0328-0.0141 0.0469-0.0234 0.0375 0.619 0.342 1.25 0.881 1.38 0.591 0.155 1.44-0.352 1.8-0.764 0.422-0.0141 0.736-0.0422 1.06 0.239 0.464 0.398 0.333 1.42 0.801 1.95 0.497 0.544 0.656 0.914 0.642 1.15zm-12-13.3c0.0937 0.0891 0.22 0.211 0.375 0.333 0.309 0.244 0.741 0.497 1.28 0.497 0.544 0 1.05-0.277 1.49-0.506 0.23-0.122 0.511-0.328 0.694-0.487 0.183-0.159 0.277-0.295 0.145-0.309-0.131-0.0141-0.122 0.122-0.281 0.239-0.206 0.15-0.455 0.347-0.651 0.459-0.347 0.197-0.914 0.478-1.4 0.478-0.487 0-0.876-0.225-1.17-0.455-0.145-0.117-0.267-0.234-0.361-0.323-0.0703-0.0656-0.089-0.216-0.202-0.23-0.0656-0.00469-0.0844 0.173 0.0797 0.305z" stroke-width=".0469"/>
</svg>
