<svg width="24" height="24" version="1.1" viewBox="0 0 24 24" xmlns="http://www.w3.org/2000/svg">
 <path d="m23.6 9.03c-0.412-1.66-1.19-2.9-2.86-2.9h-2.15v2.54c0 1.97-1.67 3.63-3.58 3.63h-5.72c-1.56 0-2.86 1.34-2.86 2.91v5.45c0 1.55 1.35 2.46 2.86 2.91 1.81 0.53 3.55 0.627 5.72 0 1.44-0.418 2.86-1.26 2.86-2.91v-2.18h-5.72v-0.729h8.58c1.67 0 2.28-1.16 2.86-2.9 0.6-1.79 0.573-3.52 0-5.82zm-8.23 10.9c0.595 0 1.08 0.487 1.08 1.09 0 0.605-0.482 1.09-1.08 1.09-0.589 0-1.08-0.493-1.08-1.09 0.0054-0.605 0.487-1.09 1.08-1.09zm-6.34-8.35h5.72c1.59 0 2.86-1.31 2.86-2.91v-5.46c0-1.55-1.31-2.72-2.86-2.98-1.92-0.316-4-0.3-5.72 0.0054-2.42 0.429-2.86 1.32-2.86 2.98v2.18h5.73v0.729h-7.87c-1.67 0-3.12 1-3.58 2.9-0.525 2.18-0.546 3.54 0 5.82 0.407 1.69 1.38 2.9 3.04 2.9h1.97v-2.61c0-1.89 1.63-3.56 3.58-3.56zm-0.359-7.64c-0.595 0-1.08-0.487-1.08-1.09 0.00536-0.605 0.482-1.09 1.08-1.09 0.589 0 1.08 0.493 1.08 1.09 0 0.6-0.482 1.09-1.08 1.09z" stroke-width=".0536"/>
</svg>
